<svg width="420" height="188" viewBox="0 0 420 188" fill="none" xmlns="http://www.w3.org/2000/svg">
<path d="M0 139.176H7.67872V123.318H27.6434V116.816H7.67872V104.216H30.1943V97.7656H0V139.176Z" fill="white"/>
<path d="M45.3174 121.311H65.2821V114.979H45.3174V104.216H67.82V97.7656H37.6387V139.176H68.6529V132.726H45.3174V121.311Z" fill="white"/>
<path d="M77.2168 139.176H84.8955V123.318H104.873V116.816H84.8955V104.216H107.411V97.7656H77.2168V139.176Z" fill="white"/>
<path d="M143.15 120.842C143.15 128.96 139.662 133.025 132.686 133.025C125.671 133.025 122.17 128.96 122.17 120.842V97.7787H114.491V121.142C114.491 127.136 116.092 131.735 119.28 134.954C122.469 138.172 126.92 139.775 132.634 139.775C138.347 139.775 142.785 138.172 145.961 134.954C149.136 131.735 150.711 127.136 150.711 121.142V97.7656H143.15V120.842Z" fill="white"/>
<path d="M319.812 97.7656L303.687 125.22L287.262 97.7656H280.937V139.176H288.264V112.086L301.852 134.446H305.288L318.875 111.734L318.927 139.176H326.202L326.137 97.7656H319.812Z" fill="white"/>
<path d="M352.323 97.7656L333.712 139.176H341.625L345.699 129.598H366.379L370.518 139.176H378.548L359.872 97.7656H352.323ZM348.301 123.565L356.045 105.466L363.841 123.565H348.301Z" fill="white"/>
<path d="M417.866 104.633C416.447 102.431 414.404 100.724 411.749 99.5509C409.094 98.3652 405.97 97.7788 402.378 97.7788H385.368V139.189H393.046V127.24H402.378C405.957 127.24 409.081 126.654 411.749 125.468C414.404 124.282 416.447 122.575 417.866 120.347C419.284 118.119 419.987 115.513 419.987 112.516C420 109.467 419.284 106.835 417.866 104.633ZM409.653 118.588C407.922 120.008 405.384 120.712 402.027 120.712H393.046V104.281H402.027C405.371 104.281 407.909 104.985 409.653 106.405C411.384 107.825 412.256 109.858 412.256 112.503C412.256 115.148 411.384 117.168 409.653 118.588Z" fill="white"/>
<path d="M214.926 0C179.474 0 150.646 28.875 150.646 64.3563C150.646 76.4092 154.004 88.1755 160.368 98.3782C160.394 98.4433 160.433 98.4954 160.472 98.5606L211.464 186.384C212.037 187.375 213.117 188 214.262 188H214.275C215.421 188 216.488 187.388 217.073 186.41L269.094 99.0297C269.133 98.9515 269.185 98.8863 269.211 98.8082C275.744 88.5013 279.206 76.5916 279.206 64.3693C279.206 28.875 250.378 0 214.926 0ZM157.153 64.3563C157.153 32.4583 183.066 6.51511 214.926 6.51511C245.797 6.51511 271.098 30.8816 272.621 61.4245L256.899 38.3088C256.664 37.4879 255.91 36.9016 255.025 36.9016H252.461C251.719 36.9016 251.081 37.3186 250.756 37.931C250.717 37.9701 250.665 38.0091 250.626 38.0613L240.747 52.6812C236.283 42.8434 226.392 35.9895 214.926 35.9895C199.295 35.9895 186.58 48.72 186.58 64.3693C186.58 64.6169 186.593 64.8644 186.593 65.112L176.897 41.3579C176.793 41.1103 176.624 40.9409 176.428 40.7976C176.077 40.4067 175.556 40.1461 174.984 40.1461H172.42C171.392 40.1461 170.546 40.954 170.468 41.9703L170.454 42.1788C170.428 42.2309 170.376 42.27 170.363 42.3222L157.674 71.992C157.336 69.4771 157.153 66.9232 157.153 64.3563ZM263.992 94.873C262.625 94.8861 261.311 94.9121 260.048 94.9382L257.94 56.2384L268.885 84.0449C268.937 84.1882 269.028 84.3055 269.12 84.4228C267.779 88.0582 266.061 91.5503 263.992 94.873ZM254.074 111.526C253.489 111.369 252.838 111.317 251.602 111.395C250.886 111.447 250.157 111.552 249.454 111.682L250.131 101.805C252.213 101.688 254.309 101.61 256.495 101.544L256.795 106.978L254.074 111.526ZM237.324 139.658H234.761V125.598C234.761 124.882 234.175 124.295 233.459 124.295H232.027V123.878H233.85C234.37 123.878 234.852 123.566 235.047 123.07L236.505 119.565C236.674 119.161 236.622 118.705 236.387 118.34C236.153 117.976 235.737 117.754 235.307 117.754H193.191C192.736 117.754 192.319 117.989 192.072 118.38C191.838 118.77 191.825 119.253 192.033 119.657L193.881 123.162C194.102 123.592 194.545 123.852 195.026 123.852H196.224V124.269H194.701C193.985 124.269 193.4 124.856 193.4 125.572V139.632H191.838L191.161 138.472V128.452C191.161 127.931 190.679 127.501 190.081 127.501H184.81L184.393 126.771H189.69C189.768 126.771 189.847 126.706 189.847 126.615V124.478C189.847 124.399 189.781 124.321 189.69 124.321H182.975L180.801 120.582L180.385 112.151C180.71 112.06 181.049 111.969 181.426 111.864L182.168 111.656C185.565 110.705 187.113 110.275 208.9 106.887C227.225 104.033 237.207 102.704 246.214 102.04L244.678 124.334H239.081C239.003 124.334 238.925 124.4 238.925 124.491V126.628C238.925 126.706 238.99 126.784 239.081 126.784H244.509L244.457 127.514H238.652C238.053 127.514 237.572 127.944 237.572 128.465V139.241L237.324 139.658ZM220.705 156.623C220.223 156.623 219.82 157.014 219.82 157.509V157.692C219.82 158.174 220.21 158.578 220.705 158.578H226.067L220.757 167.49H208.015L205.79 163.66H218.258C218.7 163.66 219.065 163.295 219.065 162.852V162.513C219.065 162.07 218.7 161.705 218.258 161.705H204.657L199.673 153.118H229.32L227.238 156.623H220.705ZM198.54 151.164L194.128 143.567H235.008L230.479 151.164H198.54ZM225.325 139.658V137.26H232.171V139.658H225.325ZM225.325 133.716H232.171V135.957H225.325V133.716ZM232.158 132.413H225.312V130.172H232.158V132.413ZM207.416 133.664H209.213C209.304 133.664 209.382 133.742 209.382 133.833V135.632C209.382 135.723 209.304 135.801 209.213 135.801H207.416C207.325 135.801 207.247 135.723 207.247 135.632V133.833C207.247 133.742 207.325 133.664 207.416 133.664ZM207.26 132.139V130.341C207.26 130.25 207.338 130.172 207.43 130.172H209.226C209.317 130.172 209.395 130.25 209.395 130.341V132.139C209.395 132.231 209.317 132.309 209.226 132.309H207.43C207.338 132.309 207.26 132.231 207.26 132.139ZM207.299 137.417C207.299 137.325 207.377 137.247 207.469 137.247H209.265C209.356 137.247 209.434 137.325 209.434 137.417V139.215C209.434 139.306 209.356 139.384 209.265 139.384H207.469C207.377 139.384 207.299 139.306 207.299 139.215V137.417ZM211.165 130.341C211.165 130.25 211.243 130.172 211.334 130.172H213.13C213.221 130.172 213.299 130.25 213.299 130.341V132.139C213.299 132.231 213.221 132.309 213.13 132.309H211.334C211.243 132.309 211.165 132.231 211.165 132.139V130.341ZM211.152 133.833C211.152 133.742 211.23 133.664 211.321 133.664H213.117C213.208 133.664 213.286 133.742 213.286 133.833V135.632C213.286 135.723 213.208 135.801 213.117 135.801H211.321C211.23 135.801 211.152 135.723 211.152 135.632V133.833ZM211.204 137.417C211.204 137.325 211.282 137.247 211.373 137.247H213.169C213.26 137.247 213.338 137.325 213.338 137.417V139.215C213.338 139.306 213.26 139.384 213.169 139.384H211.373C211.282 139.384 211.204 139.306 211.204 139.215V137.417ZM213.286 126.927V128.726C213.286 128.817 213.208 128.895 213.117 128.895H211.321C211.23 128.895 211.152 128.817 211.152 128.726V126.927C211.152 126.914 211.165 126.914 211.165 126.901H213.273C213.286 126.901 213.286 126.914 213.286 126.927ZM215.212 130.341C215.212 130.25 215.29 130.172 215.382 130.172H217.178C217.269 130.172 217.347 130.25 217.347 130.341V132.139C217.347 132.231 217.269 132.309 217.178 132.309H215.382C215.29 132.309 215.212 132.231 215.212 132.139V130.341ZM215.199 133.833C215.199 133.742 215.277 133.664 215.369 133.664H217.165C217.256 133.664 217.334 133.742 217.334 133.833V135.632C217.334 135.723 217.256 135.801 217.165 135.801H215.369C215.277 135.801 215.199 135.723 215.199 135.632V133.833ZM215.251 137.417C215.251 137.325 215.329 137.247 215.421 137.247H217.217C217.308 137.247 217.386 137.325 217.386 137.417V139.215C217.386 139.306 217.308 139.384 217.217 139.384H215.421C215.329 139.384 215.251 139.306 215.251 139.215V137.417ZM217.334 126.927V128.726C217.334 128.817 217.256 128.895 217.165 128.895H215.369C215.277 128.895 215.199 128.817 215.199 128.726V126.927C215.199 126.914 215.212 126.914 215.212 126.901H217.321C217.334 126.901 217.334 126.914 217.334 126.927ZM219.091 130.341C219.091 130.25 219.169 130.172 219.26 130.172H221.056C221.147 130.172 221.225 130.25 221.225 130.341V132.139C221.225 132.231 221.147 132.309 221.056 132.309H219.26C219.169 132.309 219.091 132.231 219.091 132.139V130.341ZM219.078 133.833C219.078 133.742 219.156 133.664 219.247 133.664H221.043C221.134 133.664 221.212 133.742 221.212 133.833V135.632C221.212 135.723 221.134 135.801 221.043 135.801H219.247C219.156 135.801 219.078 135.723 219.078 135.632V133.833ZM219.13 137.417C219.13 137.325 219.208 137.247 219.299 137.247H221.095C221.186 137.247 221.264 137.325 221.264 137.417V139.215C221.264 139.306 221.186 139.384 221.095 139.384H219.299C219.208 139.384 219.13 139.306 219.13 139.215V137.417ZM221.212 126.927V128.726C221.212 128.817 221.134 128.895 221.043 128.895H219.247C219.156 128.895 219.078 128.817 219.078 128.726V126.927C219.078 126.914 219.091 126.914 219.091 126.901H221.199C221.212 126.901 221.212 126.914 221.212 126.927ZM209.382 126.901C209.382 126.914 209.395 126.914 209.395 126.927V128.726C209.395 128.817 209.317 128.895 209.226 128.895H207.43C207.338 128.895 207.26 128.817 207.26 128.726V126.927C207.26 126.914 207.273 126.914 207.273 126.901H209.382ZM203.109 132.413H196.016V130.25H203.109V132.413ZM196.016 133.716H203.109V136.035H196.016V133.716ZM232.158 128.869H225.312V126.901H232.158V128.869ZM228.474 124.295V123.878H230.739V124.295H228.474ZM195.82 121.272L195.352 120.373H233.355L232.978 121.272H195.82ZM200.115 123.878V124.295H197.538V123.878H200.115ZM203.109 126.901V128.947H196.016V126.901H203.109ZM196.016 137.339H203.109V139.658H196.016V137.339ZM201.273 101.049L194.18 83.667C199.152 89.0225 206.167 92.4494 213.963 92.71L208.822 100.32C208.51 100.372 208.223 100.411 207.911 100.463C205.49 100.841 203.317 101.18 201.365 101.492C201.352 101.336 201.339 101.193 201.273 101.049ZM193.087 64.3563C193.087 52.3033 202.887 42.4915 214.926 42.4915C226.965 42.4915 236.765 52.3033 236.765 64.3563C236.765 76.4092 226.965 86.221 214.926 86.221C202.887 86.221 193.087 76.4092 193.087 64.3563ZM243.233 62.936C243.194 62.2714 243.142 61.6069 243.064 60.9554L247.138 53.8278L243.233 62.936ZM217.165 92.6449C219.039 92.5015 220.861 92.1758 222.605 91.6806L218.609 98.8342C216.644 99.1209 214.549 99.4466 212.349 99.7854L217.165 92.6449ZM226.34 90.3255C229.086 89.1137 231.611 87.4719 233.823 85.4913L229.034 96.6582C228.943 96.8797 228.93 97.1142 228.969 97.3488C226.769 97.6485 224.414 97.9742 221.85 98.3391L226.34 90.3255ZM239.68 78.4419C239.745 78.2986 239.758 78.1553 239.771 78.0119C240.851 76.0574 241.697 73.9595 242.296 71.7704L249.402 55.1699L246.656 95.4854C242.166 95.7982 237.481 96.2673 231.728 96.997L239.68 78.4419ZM251.771 77.6862L255.168 77.3995L256.131 95.0424C254.218 95.0945 252.383 95.1727 250.574 95.2639L251.771 77.6862ZM254.959 73.4904L252.044 73.738L253.671 49.8276L254.959 73.4904ZM242.309 57.0333C242.179 56.5642 242.049 56.0951 241.893 55.626L249.858 43.8467L242.309 57.0333ZM178.966 83.3543L183.339 104.633C182.233 104.893 181.413 105.115 180.45 105.388L180.059 105.493L178.966 83.3543ZM185.89 104.098L178.146 66.402L177.834 60.0042L191.825 103.03C189.222 103.473 187.335 103.812 185.89 104.098ZM194.415 102.6L177.378 50.2315C177.365 50.2054 177.352 50.1924 177.339 50.1663L177.287 49.2021L198.801 101.909C197.187 102.157 195.729 102.391 194.415 102.6ZM174.775 77.4907L172.146 77.2692L173.63 54.0363L174.775 77.4907ZM168.138 78.6113C168.112 78.7025 168.099 78.7807 168.086 78.8719C168.073 79.0022 168.073 79.1456 168.099 79.2759L166.98 96.7885L166.277 95.5767C166.212 95.4464 166.147 95.3161 166.069 95.1858C165.535 94.3388 165.053 93.4788 164.572 92.6188L168.502 73.1256L168.138 78.6113ZM171.886 81.1652L174.958 81.4258L176.181 106.522C175.27 106.744 174.971 106.796 174.919 106.809C174.437 106.848 174.32 106.861 173.057 107.278L170.494 102.874L171.886 81.1652ZM176.519 113.141V113.246L176.467 113.154C176.48 113.141 176.493 113.141 176.519 113.141ZM249.181 115.721C250.04 115.5 250.938 115.357 251.823 115.304L248.869 120.269L249.181 115.721ZM259.111 52.1209L271.696 74.6241C271.723 74.6632 271.749 74.6892 271.775 74.7283C271.41 76.748 270.942 78.7286 270.356 80.6961L259.111 52.1209ZM257.471 43.8597C257.406 43.7555 257.328 43.6773 257.25 43.5991L257.237 43.4297L272.334 65.6202C272.425 65.7505 272.555 65.8417 272.673 65.9329C272.634 67.4705 272.529 68.995 272.373 70.5195L257.471 43.8597ZM166.862 57.1375L159.262 79.758C158.988 78.7416 158.715 77.7253 158.494 76.7089L166.862 57.1375ZM168.229 61.242L162.659 88.9052C161.904 87.2894 161.201 85.6346 160.589 83.9667L168.229 61.242ZM219.598 169.445L214.314 178.332L209.16 169.445H219.598Z" fill="white"/>
<path d="M215.512 156.962H205.972C205.633 156.962 205.347 157.236 205.347 157.587V158.096C205.347 158.434 205.633 158.721 205.972 158.721H215.512C215.85 158.721 216.136 158.434 216.136 158.096V157.587C216.136 157.249 215.85 156.962 215.512 156.962Z" fill="white"/>
</svg>
